<?xml version="1.0" encoding="UTF-8"?>
<svg version="1.1" xmlns="http://www.w3.org/2000/svg" width="612" height="408">
<path d="M0 0 C2.34109029 -0.00135001 4.68218031 -0.00329334 7.02326965 -0.00579834 C11.91764 -0.00873668 16.81193705 -0.00449552 21.70629883 0.00488281 C27.93487268 0.01624475 34.1632735 0.0097302 40.39184093 -0.00226212 C45.22470872 -0.00954275 50.05753656 -0.00716398 54.89040565 -0.00200653 C57.18458388 -0.00068548 59.4787659 -0.00226267 61.77293968 -0.00696564 C78.02273592 -0.03296147 94.07733861 0.27216383 109.89453125 4.453125 C110.72202881 4.66815674 111.54952637 4.88318848 112.40209961 5.10473633 C156.34249538 16.91801485 193.44715745 45.20511982 216.26953125 84.578125 C228.17289768 105.72435307 235.63889123 128.23632762 239.01953125 152.265625 C239.11379395 152.93182861 239.20805664 153.59803223 239.30517578 154.28442383 C244.8710705 197.95031163 233.16912206 246.05089891 206.390625 281.22265625 C205.60816406 282.22683594 204.82570313 283.23101562 204.01953125 284.265625 C203.35050781 285.15636719 202.68148438 286.04710937 201.9921875 286.96484375 C172.93910017 324.27101539 129.78279693 348.98250753 83.01953125 355.265625 C76.09943779 356.09530497 69.2790529 356.41846883 62.3125 356.42675781 C60.78358627 356.43420517 60.78358627 356.43420517 59.2237854 356.44180298 C55.88486026 356.45629176 52.54598253 356.46320226 49.20703125 356.46875 C48.05923187 356.47157738 46.9114325 356.47440475 45.72885132 356.47731781 C39.66135431 356.49225213 33.59388074 356.50151946 27.52636719 356.50585938 C21.27907469 356.51135284 15.03199915 356.53541603 8.78477478 356.56383133 C3.95991391 356.58249608 -0.8648949 356.58766524 -5.68978882 356.58919525 C-7.99255568 356.59221077 -10.29532186 356.60020186 -12.59805298 356.61338043 C-15.82334793 356.63053031 -19.04811484 356.62853938 -22.2734375 356.62207031 C-23.21295258 356.6312851 -24.15246765 356.64049988 -25.12045288 356.6499939 C-35.92285474 356.5824888 -44.88090209 353.52730546 -52.98046875 346.265625 C-57.82902459 340.41530143 -60.83857677 334.68432912 -61.53710938 327.08740234 C-61.62174438 326.18500824 -61.70637939 325.28261414 -61.7935791 324.35287476 C-61.85525269 323.66408234 -61.91692627 322.97528992 -61.98046875 322.265625 C-61.39537316 322.26231485 -60.81027758 322.25900471 -60.20745182 322.25559425 C-45.84485896 322.17369653 -31.48235922 322.08139918 -17.11990452 321.97809792 C-10.17378916 321.92837862 -3.22768327 321.88193847 3.71850586 321.84375 C10.44245321 321.8067735 17.16627874 321.75995569 23.89012337 321.70756149 C26.43444818 321.6892618 28.97879761 321.67406758 31.52316093 321.66228104 C44.23449825 321.60138137 56.88499685 321.35985102 69.56274414 320.38037109 C71.04298522 320.26818206 71.04298522 320.26818206 72.55313015 320.15372658 C110.32443614 316.91440986 145.93068935 298.7744991 170.64453125 270.015625 C189.41425889 247.43298232 200.17743713 221.28203729 204.01953125 192.265625 C204.15101563 191.31171875 204.2825 190.3578125 204.41796875 189.375 C204.70116036 187.00231352 204.88939866 184.65138915 205.01953125 182.265625 C205.07238281 181.39292969 205.12523437 180.52023438 205.1796875 179.62109375 C206.31852636 141.8413525 192.47854231 104.97432776 167.01953125 77.265625 C166.230625 76.39421875 165.44171875 75.5228125 164.62890625 74.625 C146.98494699 56.04626144 123.02453062 43.42017457 98.01953125 38.265625 C97.23861618 38.0974527 96.45770111 37.9292804 95.65312195 37.75601196 C83.94758582 35.5983924 72.12575568 35.9371967 60.265625 35.9296875 C57.87240013 35.92325222 55.47917602 35.91652333 53.08595276 35.90951538 C48.09593884 35.89759895 43.10599392 35.89382942 38.1159668 35.89501953 C31.71674812 35.89522399 25.31796723 35.86776627 18.91885281 35.83347511 C13.98871308 35.81128257 9.05868074 35.80717941 4.12849617 35.80823898 C1.76773614 35.80587748 -0.5930266 35.79702324 -2.95373726 35.78157425 C-6.24234519 35.76204216 -9.52998092 35.76769917 -12.81860352 35.77978516 C-13.79367859 35.76854614 -14.76875366 35.75730713 -15.77337646 35.74572754 C-16.66881668 35.75411652 -17.5642569 35.76250549 -18.48683167 35.77114868 C-19.65061765 35.76951438 -19.65061765 35.76951438 -20.83791447 35.76784706 C-23.99002461 36.50017431 -25.0992925 37.64457488 -26.98046875 40.265625 C-27.37690653 42.91762368 -27.52833884 45.15726043 -27.49945068 47.80792236 C-27.50695194 48.5708808 -27.51445319 49.33383924 -27.52218175 50.11991763 C-27.54249273 52.67820247 -27.53434988 55.23560389 -27.52636719 57.79394531 C-27.53510037 59.62703327 -27.54558526 61.4601136 -27.55769348 63.29318237 C-27.58560532 68.27218597 -27.58895702 73.25094146 -27.58797359 78.23001194 C-27.59109824 83.43243051 -27.61670709 88.6347366 -27.63995361 93.83709717 C-27.68055152 103.68968455 -27.70086324 113.54220568 -27.71392751 123.39486384 C-27.72978471 134.61124771 -27.76819494 145.82751864 -27.80852079 157.04383707 C-27.89097162 180.1177285 -27.94503135 203.19161687 -27.98046875 226.265625 C-26.01998523 226.0108221 -24.06206202 225.73625556 -22.10546875 225.453125 C-21.01492187 225.30230469 -19.924375 225.15148437 -18.80078125 224.99609375 C-15.66808029 224.51896759 -15.66808029 224.51896759 -13.98046875 221.265625 C-13.66647861 218.10125721 -13.66647861 218.10125721 -13.70199585 214.41304016 C-13.69620345 213.71218943 -13.69041105 213.0113387 -13.68444312 212.28925008 C-13.66740643 209.93538148 -13.66456351 207.58170852 -13.66162109 205.2277832 C-13.65232544 203.54262814 -13.64215731 201.85747771 -13.63117981 200.17233276 C-13.60382483 195.59208779 -13.58871415 191.01187367 -13.57575178 186.43156838 C-13.56014525 181.64690366 -13.53334717 176.86230216 -13.50772095 172.0776825 C-13.4608892 163.0148601 -13.42416639 153.95202587 -13.39104807 144.88914412 C-13.35285771 134.57242409 -13.3034395 124.25576748 -13.25306392 113.93910086 C-13.14967869 92.71465571 -13.06043975 71.49017043 -12.98046875 50.265625 C-0.51379333 50.17239685 11.95279734 50.10159435 24.41975212 50.05837631 C30.21046251 50.03761988 36.00093206 50.00952378 41.79150391 49.96386719 C47.39366096 49.91997933 52.99558832 49.89639843 58.59790421 49.88611603 C60.72103611 49.87880093 62.84415736 49.86451974 64.96718979 49.84270477 C95.95945098 49.5373001 123.05159902 58.45039045 147.01953125 78.265625 C147.76847656 78.86117187 148.51742188 79.45671875 149.2890625 80.0703125 C168.43999035 95.8594404 180.37658206 119.80787902 187.01953125 143.265625 C187.36113281 144.44382813 187.70273437 145.62203125 188.0546875 146.8359375 C192.81543357 166.98607204 191.81229467 191.4681347 186.01953125 211.265625 C185.70604736 212.35520508 185.70604736 212.35520508 185.38623047 213.46679688 C179.35183926 233.73511909 168.48807013 250.9459956 154.01953125 266.265625 C153.28347656 267.07773437 152.54742187 267.88984375 151.7890625 268.7265625 C128.76036644 293.18249768 93.12579399 306.29115167 59.99278641 307.36359406 C56.55559796 307.40892925 53.11961582 307.42357563 49.68212891 307.42675781 C48.38321213 307.43172272 47.08429535 307.43668762 45.74601746 307.44180298 C42.21079312 307.45480978 38.67558766 307.46134808 35.14034319 307.46581364 C32.92470968 307.46876182 30.70908114 307.47286962 28.49345016 307.47731781 C21.54054563 307.49095826 14.58765268 307.50064325 7.6347357 307.5045197 C-0.35400997 307.5090002 -8.34258453 307.52656225 -16.3312782 307.5555203 C-22.53374268 307.57721328 -28.73615925 307.58722793 -34.93866122 307.58856082 C-38.63114518 307.58960287 -42.32346754 307.59538221 -46.0159111 307.61338043 C-50.13880389 307.6330905 -54.26134243 307.62854196 -58.38427734 307.62207031 C-59.58777328 307.6312851 -60.79126923 307.64049988 -62.03123474 307.6499939 C-76.39684178 307.57968861 -88.48670833 304.05830364 -99.1328125 294.1953125 C-110.77409737 282.03718411 -111.57759494 267.27301981 -111.51391602 251.35522461 C-111.52098739 249.48116888 -111.52973749 247.60711885 -111.5400238 245.733078 C-111.56238735 240.6793894 -111.55960927 235.62601588 -111.55070233 230.57229686 C-111.54556733 226.34024034 -111.55290506 222.10824174 -111.56017441 217.8761912 C-111.577131 207.88835584 -111.57364922 197.90067344 -111.55688477 187.9128418 C-111.5399543 177.63401869 -111.55582048 167.35562 -111.58810765 157.0768432 C-111.61485274 148.22463033 -111.62206666 139.37254917 -111.61359257 130.52029997 C-111.60867937 125.24498888 -111.6107922 119.96993318 -111.63138008 114.69465446 C-111.64981556 109.73428297 -111.64368275 104.77451974 -111.61918068 99.81418037 C-111.61419834 98.0018608 -111.617595 96.18949421 -111.63032913 94.37721252 C-111.71503093 81.27938144 -110.4829138 69.944461 -100.921875 60.01171875 C-94.79794561 54.50387883 -88.19729441 50.6480399 -79.98046875 49.265625 C-79.32046875 49.595625 -78.66046875 49.925625 -77.98046875 50.265625 C-77.97992398 51.39152699 -77.97937922 52.51742899 -77.97881794 53.67744923 C-77.96443801 81.0425004 -77.92148581 108.40739222 -77.84837818 135.77235126 C-77.81368929 149.00572373 -77.78836754 162.2389916 -77.78491211 175.47241211 C-77.78187764 187.00340818 -77.76145691 198.53421818 -77.71994418 210.06514233 C-77.69856556 216.17367982 -77.68603856 222.28195244 -77.69431496 228.39052773 C-77.70182425 234.13535935 -77.68615957 239.87965294 -77.6524086 245.62438583 C-77.64413758 247.73717221 -77.64446942 249.85001171 -77.65387154 251.96279335 C-77.66540955 254.83942978 -77.6465043 257.71427799 -77.6197052 260.59077454 C-77.63037846 261.43415369 -77.64105172 262.27753284 -77.65204841 263.14646894 C-77.66391303 265.73334171 -77.66391303 265.73334171 -76.98046875 269.265625 C-73.94366737 271.98915822 -71.37800523 272.64070836 -67.3646698 272.63311768 C-66.01805016 272.64147141 -66.01805016 272.64147141 -64.64422607 272.6499939 C-63.67132629 272.64077911 -62.69842651 272.63156433 -61.69604492 272.62207031 C-60.66097305 272.62411469 -59.62590118 272.62615906 -58.5594635 272.62826538 C-55.13060927 272.63127673 -51.70223489 272.61276165 -48.2734375 272.59375 C-45.87185281 272.59068841 -43.47026634 272.58881533 -41.06867981 272.58807373 C-36.02057137 272.58346586 -30.97262201 272.5690383 -25.92456055 272.546875 C-19.52275606 272.51888127 -13.12107811 272.50769196 -6.71921825 272.5031929 C-0.54977571 272.49797056 5.61963665 272.48346596 11.7890625 272.46875 C12.93555582 272.46686928 14.08204914 272.46498856 15.26328468 272.46305084 C27.20793256 272.43778561 39.13678722 272.29953663 51.07299805 271.82714844 C52.52076362 271.77182386 52.52076362 271.77182386 53.99777699 271.71538162 C82.60763497 270.4572512 111.25341472 260.61400682 131.28125 239.34375 C149.62914651 217.40873664 156.90084303 192.80825164 155.01953125 164.265625 C152.51346526 143.53251322 143.63214401 125.1443615 129.01953125 110.265625 C128.2821875 109.50378906 127.54484375 108.74195313 126.78515625 107.95703125 C110.07974441 91.78417449 88.76028148 86.06428907 66.0390625 85.8515625 C64.74506027 85.83219635 63.45105804 85.8128302 62.11784363 85.7928772 C58.71665286 85.74207677 55.31542303 85.70217656 51.9140625 85.66473389 C48.42764038 85.62436285 44.9413733 85.57342357 41.45507812 85.5234375 C34.64334313 85.4272973 27.83150799 85.34269952 21.01953125 85.265625 C21.02321842 85.9915472 21.02690559 86.71746941 21.0307045 87.46538925 C21.11923554 105.1697318 21.18532813 122.87401775 21.22677994 140.57853317 C21.24736113 149.14048996 21.27539619 157.70229853 21.32128906 166.26416016 C21.36129351 173.731058 21.38699632 181.19784843 21.39588523 188.66485047 C21.40107708 192.61465145 21.41318575 196.5641453 21.44245148 200.51384735 C21.46983643 204.24032009 21.47793036 207.96636259 21.47196198 211.69292641 C21.4735672 213.69454598 21.49496813 215.69611996 21.51721191 217.69761658 C21.45762045 230.91627953 18.11039 240.8617341 8.984375 250.390625 C-1.01971689 259.98890716 -11.66058542 261.42508087 -25.03125 261.3984375 C-26.0857988 261.39939423 -27.1403476 261.40035095 -28.22685242 261.40133667 C-30.44656433 261.40201518 -32.66627826 261.40018392 -34.88598633 261.39599609 C-38.2983845 261.39061646 -41.71065264 261.3959659 -45.12304688 261.40234375 C-47.27994821 261.40168343 -49.43684946 261.40040324 -51.59375 261.3984375 C-53.13268669 261.40147385 -53.13268669 261.40147385 -54.70271301 261.40457153 C-55.64426743 261.40141937 -56.58582184 261.39826721 -57.5559082 261.39501953 C-58.38830521 261.39422394 -59.22070221 261.39342834 -60.07832336 261.39260864 C-61.98046875 261.265625 -61.98046875 261.265625 -62.98046875 260.265625 C-63.08729364 257.41234736 -63.12825175 254.58298182 -63.12763977 251.72894287 C-63.13131646 250.82254507 -63.13499315 249.91614727 -63.13878125 248.98228288 C-63.14986598 245.92014914 -63.15367012 242.85804928 -63.1574707 239.79589844 C-63.1637321 237.60997407 -63.17037861 235.42405077 -63.17738342 233.23812866 C-63.19483165 227.27883108 -63.20535711 221.31954155 -63.21358895 215.36022472 C-63.21873451 211.63620806 -63.22481067 207.91219391 -63.23110008 204.18817902 C-63.24907383 193.20421683 -63.26344693 182.22025928 -63.27127649 171.23628499 C-63.27271496 169.22458061 -63.27416633 167.21287623 -63.27563477 165.20117188 C-63.27611851 164.5352497 -63.27660225 163.86932753 -63.27710065 163.1832259 C-63.28538379 152.41878526 -63.31068684 141.65445638 -63.34321544 130.89006445 C-63.37636206 119.83053526 -63.39397262 108.77106554 -63.39749306 97.71148705 C-63.39984046 91.505396 -63.40875968 85.29948112 -63.43395424 79.09343719 C-63.45730633 73.24609087 -63.46143937 67.39903576 -63.45119286 61.55165482 C-63.450699 59.4124034 -63.45697466 57.27313733 -63.4707489 55.13393021 C-63.57680574 37.67667266 -61.96747212 23.93313928 -49.73046875 10.515625 C-36.29767917 -2.15293585 -17.09895681 -0.03487344 0 0 Z " fill="#303031" transform="translate(240.98046875,25.734375)"/>
<path d="M0 0 C0 0.99 0 1.98 0 3 C-0.495 3.433125 -0.99 3.86625 -1.5 4.3125 C-3.3314563 6.02209709 -3.3314563 6.02209709 -3.1875 9.1875 C-3.125625 10.115625 -3.06375 11.04375 -3 12 C-3.8971875 12.2784375 -3.8971875 12.2784375 -4.8125 12.5625 C-7.98606813 14.64798763 -8.95814587 17.47544185 -10 21 C-10.4112127 24.15869255 -10.41660527 27.27737001 -10.39872742 30.45957947 C-10.40537424 31.39252683 -10.41202107 32.32547419 -10.41886932 33.28669268 C-10.43747078 36.40209655 -10.43489591 39.5171154 -10.43237305 42.63256836 C-10.44139193 44.87003114 -10.45171945 47.10748897 -10.46325684 49.34494019 C-10.49083798 55.41252702 -10.50011293 61.48002014 -10.50611091 67.54766154 C-10.5154916 73.89115155 -10.54169479 80.23457147 -10.56611633 86.57801819 C-10.60483129 97.22298409 -10.63318078 107.86792682 -10.65356445 118.51293945 C-10.67458408 129.47520652 -10.70186775 140.43742863 -10.73754883 151.3996582 C-10.73974765 152.07586713 -10.74194648 152.75207607 -10.74421193 153.44877618 C-10.75528183 156.84126625 -10.7664746 160.23375591 -10.77772844 163.62624538 C-10.87086664 191.75079079 -10.94226492 219.87536132 -11 248 C-11.33 248 -11.66 248 -12 248 C-12.11420176 219.15846045 -12.20261981 190.3169477 -12.25532665 161.47522633 C-12.26157976 158.06584062 -12.26805141 154.65645535 -12.2746582 151.24707031 C-12.27596976 150.56835787 -12.27728131 149.88964543 -12.2786326 149.19036594 C-12.30035575 138.21824089 -12.33976006 127.24624758 -12.38576398 116.27420053 C-12.43261497 105.00567118 -12.45993963 93.73720733 -12.47044247 82.46857572 C-12.47695116 76.14339618 -12.49220945 69.81851489 -12.52865028 63.49343109 C-12.56270226 57.53445057 -12.57303418 51.57588987 -12.56553841 45.61682129 C-12.56690882 43.43521083 -12.5767859 41.25358567 -12.59602737 39.07205963 C-12.72144885 24.11275458 -12.20271594 12.70732674 -1.35546875 1.328125 C-0.90816406 0.88984375 -0.46085938 0.4515625 0 0 Z " fill="#474749" transform="translate(191,37)"/>
<path d="M0 0 C1.01763931 -0.00335861 2.03527863 -0.00671722 3.08375549 -0.01017761 C6.4269434 -0.01962596 9.77008085 -0.02162796 13.11328125 -0.02270508 C15.45865906 -0.02592302 17.80403667 -0.02928748 20.14941406 -0.03279114 C25.06169092 -0.03876795 29.97395023 -0.04063264 34.88623047 -0.04003906 C41.13841894 -0.03993778 47.39049297 -0.05356137 53.64265442 -0.07081127 C58.48838808 -0.08200878 63.33409482 -0.08395587 68.17984009 -0.08342934 C70.48239535 -0.08459891 72.78495155 -0.08896221 75.0874939 -0.0967617 C92.65628 -0.15068129 109.3470212 0.68993496 126.42578125 5.14526367 C126.42578125 5.47526367 126.42578125 5.80526367 126.42578125 6.14526367 C124.17584766 6.17233507 121.9258203 6.19169196 119.67578125 6.20776367 C118.4228125 6.21936523 117.16984375 6.2309668 115.87890625 6.24291992 C113.14041624 6.16547394 111.00697832 5.97307182 108.42578125 5.14526367 C108.42578125 4.48526367 108.42578125 3.82526367 108.42578125 3.14526367 C66.18578125 2.81526367 23.94578125 2.48526367 -19.57421875 2.14526367 C-19.57421875 1.81526367 -19.57421875 1.48526367 -19.57421875 1.14526367 C-13.01062852 0.3059537 -6.61297303 -0.00318324 0 0 Z " fill="#9E9EA1" transform="translate(227.57421875,25.854736328125)"/>
<path d="M0 0 C1.1821995 0.00138269 1.1821995 0.00138269 2.38828182 0.00279331 C3.28997097 0.00141865 4.19166012 0.00004398 5.12067318 -0.00137234 C6.6160738 0.00402058 6.6160738 0.00402058 8.14168453 0.00952244 C9.18546261 0.00937641 10.22924068 0.00923038 11.3046484 0.00907993 C14.77305295 0.00977956 18.24140454 0.0175743 21.70979977 0.02539158 C24.1073367 0.02725558 26.50487401 0.02867957 28.90241146 0.0296793 C35.22684936 0.03350589 41.55126446 0.04333737 47.87569332 0.05438328 C54.32364754 0.06459438 60.77160543 0.06917627 67.21956539 0.0742197 C79.88168452 0.08495951 92.54378781 0.10184664 105.20589352 0.12304783 C105.20589352 0.45304783 105.20589352 0.78304783 105.20589352 1.12304783 C103.89488674 1.12891407 102.58387997 1.13478031 101.23314571 1.14082432 C88.90151657 1.19794098 76.57006565 1.27064419 64.2386179 1.35876274 C57.89829551 1.40356451 51.55803884 1.44279885 45.21761227 1.46948338 C39.10319218 1.49541867 32.98902371 1.53575118 26.87475872 1.58623409 C24.53751273 1.60296917 22.20022316 1.61444189 19.86292553 1.62066174 C16.5988849 1.63023078 13.33549774 1.6582033 10.07161617 1.69067478 C9.09697918 1.68923969 8.12234219 1.6878046 7.11817074 1.68632603 C5.78881748 1.70513325 5.78881748 1.70513325 4.4326086 1.72432041 C3.66014608 1.72892938 2.88768356 1.73353834 2.09181309 1.73828697 C-0.20495792 1.97625531 -0.20495792 1.97625531 -1.79410648 5.12304783 C-2.45410648 5.12304783 -3.11410648 5.12304783 -3.79410648 5.12304783 C-2.67877492 0.18372234 -2.67877492 0.18372234 0 0 Z " fill="#595959" transform="translate(216.79410648345947,58.876952171325684)"/>
<path d="M0 0 C2.20644747 2.04498098 3.65854534 3.9332361 5.0078125 6.6171875 C5.35457031 7.30683594 5.70132812 7.99648437 6.05859375 8.70703125 C6.41050781 9.42246094 6.76242187 10.13789063 7.125 10.875 C7.48464844 11.58269531 7.84429687 12.29039062 8.21484375 13.01953125 C10.02484087 16.65986253 11.47192192 19.91939663 12 24 C10.10546875 23.30078125 10.10546875 23.30078125 8 22 C6.98828125 19.79296875 6.98828125 19.79296875 6.3125 17.1875 C5.96638672 15.90939453 5.96638672 15.90939453 5.61328125 14.60546875 C5.0186144 12.07908157 4.48960227 9.54867723 4 7 C3.34 7 2.68 7 2 7 C2 6.34 2 5.68 2 5 C1.01 4.67 0.02 4.34 -1 4 C-0.67 2.68 -0.34 1.36 0 0 Z " fill="#919191" transform="translate(411,132)"/>
<path d="M0 0 C-2.72757073 3.31567148 -6.37265929 4.81481435 -10.1875 6.5625 C-10.82236328 6.86607422 -11.45722656 7.16964844 -12.11132812 7.48242188 C-16.66280748 9.59478692 -21.10332043 10.90519178 -26 12 C-24.11069038 8.22138076 -18.72250794 7.63965221 -14.90625 6.31640625 C-13.9471875 5.88199219 -12.988125 5.44757813 -12 5 C-11.67 4.01 -11.34 3.02 -11 2 C-7.24092359 0.37676246 -4.07913787 -0.23994929 0 0 Z " fill="#868687" transform="translate(367,313)"/>
<path d="M0 0 C0 0.99 0 1.98 0 3 C-0.495 3.433125 -0.99 3.86625 -1.5 4.3125 C-3.3314563 6.02209709 -3.3314563 6.02209709 -3.1875 9.1875 C-3.125625 10.115625 -3.06375 11.04375 -3 12 C-3.61359375 12.22429688 -4.2271875 12.44859375 -4.859375 12.6796875 C-7.68926087 14.42512806 -8.13933057 16.0309923 -9.25 19.125 C-9.58515625 20.03507812 -9.9203125 20.94515625 -10.265625 21.8828125 C-10.50796875 22.58148438 -10.7503125 23.28015625 -11 24 C-12.84361878 19.1605007 -10.56798552 15.55556672 -8.61328125 11.0625 C-6.34693717 6.76028751 -3.45821145 3.38844926 0 0 Z " fill="#818183" transform="translate(191,37)"/>
<path d="M0 0 C1.38842979 4.16528938 -0.20850424 6.91279857 -1.75 10.8125 C-2.01554687 11.51181641 -2.28109375 12.21113281 -2.5546875 12.93164062 C-4.15323908 17.07933878 -5.94303337 21.05335016 -8 25 C-9 22 -9 22 -8.12109375 20.09375 C-7.75113281 19.4028125 -7.38117188 18.711875 -7 18 C-6.64570093 16.50931948 -6.3336348 15.00802592 -6.0625 13.5 C-5.31914982 9.91787156 -4.40630536 7.80735625 -2 5 C-1.28837557 3.35202764 -0.60968047 1.68834592 0 0 Z " fill="#878789" transform="translate(471,256)"/>
<path d="M0 0 C0.33 0 0.66 0 1 0 C1.6053938 9.33651766 1.13668843 16.03813293 -4 24 C-5.61742637 19.97690782 -4.29459504 16.52440639 -3.125 12.5625 C-1.93723201 8.39712053 -0.77284642 4.26709884 0 0 Z " fill="#939394" transform="translate(444,226)"/>
<path d="M0 0 C8.95788336 0.42516959 17.32210784 1.74175965 26 4 C26 4.33 26 4.66 26 5 C23.75006641 5.02707139 21.50003905 5.04642829 19.25 5.0625 C17.99703125 5.07410156 16.7440625 5.08570313 15.453125 5.09765625 C12.71463499 5.02021027 10.58119707 4.82780815 8 4 C8 3.34 8 2.68 8 2 C5.36 1.67 2.72 1.34 0 1 C0 0.67 0 0.34 0 0 Z " fill="#8D8D8E" transform="translate(328,27)"/>
<path d="M0 0 C0.33 1.32 0.66 2.64 1 4 C-4.94 9.445 -4.94 9.445 -11 15 C-11.66 14.67 -12.32 14.34 -13 14 C-12.39671875 13.40832031 -11.7934375 12.81664062 -11.171875 12.20703125 C-5.26989543 6.38766162 -5.26989543 6.38766162 0 0 Z " fill="#8D8D8E" transform="translate(378,258)"/>
<path d="M0 0 C-10.37357631 6.51936219 -10.37357631 6.51936219 -16 8 C-11.96722697 3.46313034 -6.35126345 -2.11708782 0 0 Z " fill="#8E8E8F" transform="translate(208,29)"/>
<path d="M0 0 C-4.57928118 4.82029598 -4.57928118 4.82029598 -8.625 5.33203125 C-11.10024766 5.31445137 -13.53484453 5.21923319 -16 5 C-13.13879225 3.09252817 -10.64745007 1.99646294 -7.4375 0.8125 C-6.46683594 0.44769531 -5.49617188 0.08289063 -4.49609375 -0.29296875 C-2 -1 -2 -1 0 0 Z " fill="#808082" transform="translate(360,336)"/>
<path d="M0 0 C0.33 0.66 0.66 1.32 1 2 C-0.28610133 3.9829888 -1.57849139 5.96133376 -2.875 7.9375 C-3.59429687 9.03964844 -4.31359375 10.14179688 -5.0546875 11.27734375 C-7 14 -7 14 -9 15 C-8.01 12.03 -7.02 9.06 -6 6 C-5.34 6 -4.68 6 -4 6 C-2.61061923 4.03852126 -1.2739589 2.03833424 0 0 Z " fill="#99999C" transform="translate(455,292)"/>
<path d="M0 0 C0.99 0.33 1.98 0.66 3 1 C1.33248852 4.94139078 -1.22710649 7.7892812 -4 11 C-4 7.61976483 -3.12544378 5.16531063 -2 2 C-1.34 2 -0.68 2 0 2 C0 1.34 0 0.68 0 0 Z " fill="#747476" transform="translate(403,277)"/>
<path d="M0 0 C3.42931954 3.7559214 4.56429083 8.23466745 6 13 C4.31238459 11.38556033 3.08745752 10.18074554 2.0625 8.0625 C0.76677303 5.54726529 -0.9432448 3.91963819 -3 2 C-2.01 1.34 -1.02 0.68 0 0 Z " fill="#7E7E7F" transform="translate(460,117)"/>
<path d="M0 0 C0.66 0.33 1.32 0.66 2 1 C-3.58924205 6.8997555 -3.58924205 6.8997555 -7 8 C-8.34302277 7.70814606 -9.6789271 7.37901884 -11 7 C-9.21475351 5.80286983 -7.4215972 4.61752721 -5.625 3.4375 C-4.62726563 2.77621094 -3.62953125 2.11492187 -2.6015625 1.43359375 C-1.74304688 0.96050781 -0.88453125 0.48742187 0 0 Z " fill="#878788" transform="translate(358,277)"/>
<path d="M0 0 C1.3580566 4.0741698 0.61653773 6.06408206 -1 10 C-4.125 11.9375 -4.125 11.9375 -7 13 C-5.35821735 8.22390502 -2.73453298 4.20617096 0 0 Z " fill="#878787" transform="translate(386,245)"/>
<path d="M0 0 C0.66 0.33 1.32 0.66 2 1 C1.01 1 0.02 1 -1 1 C-0.67 0.67 -0.34 0.34 0 0 Z M-2 2 C-1.67 2.66 -1.34 3.32 -1 4 C-1.66 3.67 -2.32 3.34 -3 3 C-2.67 2.67 -2.34 2.34 -2 2 Z M-4 4 C-4 7 -4 7 -6.5 9.6875 C-7.325 10.450625 -8.15 11.21375 -9 12 C-9.66 11.67 -10.32 11.34 -11 11 C-6.25 5.125 -6.25 5.125 -4 4 Z " fill="#242426" transform="translate(404,306)"/>
<path d="M0 0 C2.64 0.33 5.28 0.66 8 1 C8.33 1.99 8.66 2.98 9 4 C9.66 4 10.32 4 11 4 C11.33 4.99 11.66 5.98 12 7 C7.69235185 5.43358249 3.93828536 3.31663844 0 1 C0 0.67 0 0.34 0 0 Z " fill="#79797A" transform="translate(371,74)"/>
<path d="M0 0 C1.48831242 0.00667405 2.97660807 0.01863442 4.46484375 0.03515625 C5.22345703 0.03966797 5.98207031 0.04417969 6.76367188 0.04882812 C8.64326246 0.06064945 10.52281274 0.07858547 12.40234375 0.09765625 C12.40234375 0.42765625 12.40234375 0.75765625 12.40234375 1.09765625 C11.41492188 1.13503906 10.4275 1.17242187 9.41015625 1.2109375 C7.48816406 1.30955078 7.48816406 1.30955078 5.52734375 1.41015625 C4.25117188 1.46816406 2.975 1.52617188 1.66015625 1.5859375 C0.58507812 1.75480469 -0.49 1.92367187 -1.59765625 2.09765625 C-2.58765625 3.58265625 -2.58765625 3.58265625 -3.59765625 5.09765625 C-4.25765625 5.09765625 -4.91765625 5.09765625 -5.59765625 5.09765625 C-4.47399541 0.12144396 -4.47399541 0.12144396 0 0 Z " fill="#49494B" transform="translate(218.59765625,58.90234375)"/>
<path d="M0 0 C0.66 0.33 1.32 0.66 2 1 C-1.3 3.97 -4.6 6.94 -8 10 C-8.66 9.67 -9.32 9.34 -10 9 C-6.53882726 3.19017433 -6.53882726 3.19017433 -3.875 2.25 C-3.25625 2.1675 -2.6375 2.085 -2 2 C-1.34 1.34 -0.68 0.68 0 0 Z " fill="#929293" transform="translate(421,333)"/>
<path d="M0 0 C0.66 0 1.32 0 2 0 C5.125 6.625 5.125 6.625 4 10 C1 8 1 8 0.48828125 6.0546875 C0.32552083 4.03645833 0.16276042 2.01822917 0 0 Z " fill="#707071" transform="translate(418,146)"/>
<path d="M0 0 C0.99 0.66 1.98 1.32 3 2 C-0.465 4.97 -0.465 4.97 -4 8 C-4.33 7.01 -4.66 6.02 -5 5 C-3.35 3.35 -1.7 1.7 0 0 Z " fill="#5B5B5C" transform="translate(428,324)"/>
<path d="M0 0 C3.19199167 2.41556126 5.74716687 4.68003538 8 8 C7.67 8.66 7.34 9.32 7 10 C2.20238095 7.53968254 2.20238095 7.53968254 1.25 5 C1.1675 4.34 1.085 3.68 1 3 C0.67 2.01 0.34 1.02 0 0 Z " fill="#7C7C7C" transform="translate(398,115)"/>
<path d="M0 0 C1.32 0.33 2.64 0.66 4 1 C5.125 7.625 5.125 7.625 4 11 C3.32880451 9.5437455 2.66318193 8.08492133 2 6.625 C1.62875 5.81289062 1.2575 5.00078125 0.875 4.1640625 C0 2 0 2 0 0 Z " fill="#78787A" transform="translate(432,136)"/>
<path d="M0 0 C3.72114571 2.31537955 6.61229661 4.28579473 9 8 C8.1646875 7.505 8.1646875 7.505 7.3125 7 C4.69715478 5.8690399 2.8193354 5.84337026 0 6 C0 4.02 0 2.04 0 0 Z " fill="#7C7C7D" transform="translate(418,65)"/>
<path d="M0 0 C4.43458973 1.3937282 6.87378374 3.60582235 10 7 C8.51515588 6.60404157 7.0371169 6.18249294 5.5625 5.75 C4.73878906 5.51796875 3.91507812 5.2859375 3.06640625 5.046875 C1 4 1 4 0.21484375 1.890625 C0.14394531 1.26671875 0.07304687 0.6428125 0 0 Z " fill="#777779" transform="translate(403,54)"/>
<path d="M0 0 C0.66 0.33 1.32 0.66 2 1 C1.01 2.485 1.01 2.485 0 4 C-0.99 4 -1.98 4 -3 4 C-3.33 4.99 -3.66 5.98 -4 7 C-5.32 6.67 -6.64 6.34 -8 6 C-5.36 4.02 -2.72 2.04 0 0 Z " fill="#919192" transform="translate(390,316)"/>
<path d="M0 0 C2.31 1.65 4.62 3.3 7 5 C6.67 5.66 6.34 6.32 6 7 C3.0625 6.25 3.0625 6.25 0 5 C-0.9375 2.9375 -0.9375 2.9375 -1 1 C-0.67 0.67 -0.34 0.34 0 0 Z " fill="#6D6D6D" transform="translate(389,106)"/>
<path d="M0 0 C2.99693138 0.99897713 4.02709413 1.65130253 6 4 C6 4.66 6 5.32 6 6 C0.25 4.375 0.25 4.375 -2 1 C-1.34 0.67 -0.68 0.34 0 0 Z " fill="#707074" transform="translate(149,322)"/>
<path d="M0 0 C0.66 0 1.32 0 2 0 C2.25 7.625 2.25 7.625 0 11 C-1.28571429 3.57142857 -1.28571429 3.57142857 0 0 Z " fill="#5C5C5E" transform="translate(472,245)"/>
<path d="M0 0 C2.2344598 4.03292745 2.54496743 7.44967434 3 12 C0.89366282 10.29171079 0.06198392 9.47851584 -0.29296875 6.73828125 C-0.25816406 5.93777344 -0.22335937 5.13726562 -0.1875 4.3125 C-0.16042969 3.50425781 -0.13335937 2.69601563 -0.10546875 1.86328125 C-0.07066406 1.24839844 -0.03585937 0.63351563 0 0 Z " fill="#8D8D8D" transform="translate(474,153)"/>
<path d="M0 0 C0 0.66 0 1.32 0 2 C0.66 2 1.32 2 2 2 C2 2.66 2 3.32 2 4 C-3.75 2.25 -3.75 2.25 -6 0 C-3.50907189 -1.24546405 -2.58919267 -0.7767578 0 0 Z " fill="#6E6E70" transform="translate(350,117)"/>
<path d="M0 0 C0.66 1.32 1.32 2.64 2 4 C-0.1385485 6.1385485 -1.13275314 6.42655063 -4 7 C-2.79618552 4.50638429 -1.54571278 2.31856917 0 0 Z " fill="#7B7B7B" transform="translate(422,282)"/>
<path d="M0 0 C-1.98 1.32 -3.96 2.64 -6 4 C-6.66 3.67 -7.32 3.34 -8 3 C-7.67 2.01 -7.34 1.02 -7 0 C-2.25 -1.125 -2.25 -1.125 0 0 Z " fill="#878789" transform="translate(375,309)"/>
<path d="M0 0 C4.62 0 9.24 0 14 0 C14 0.33 14 0.66 14 1 C9.38 1 4.76 1 0 1 C0 0.67 0 0.34 0 0 Z " fill="#FFFFFF" transform="translate(306,74)"/>
<path d="M0 0 C1.98 0 3.96 0 6 0 C6 0.33 6 0.66 6 1 C4.02 1 2.04 1 0 1 C0 0.67 0 0.34 0 0 Z " fill="#FFFFFF" transform="translate(288,74)"/>
<path d="M0 0 C3 1 3 1 3 1 Z " fill="#FFFFFF" transform="translate(228,297)"/>
<path d="M0 0 C3 1 3 1 3 1 Z " fill="#FFFFFF" transform="translate(183,297)"/>
<path d="" fill="#FFFFFF" transform="translate(0,0)"/>
<path d="M0 0 C2 1 2 1 2 1 Z " fill="#FFFFFF" transform="translate(224,297)"/>
<path d="M0 0 C2 1 2 1 2 1 Z " fill="#FFFFFF" transform="translate(303,74)"/>
<path d="" fill="#FFFFFF" transform="translate(0,0)"/>
<path d="" fill="#FFFFFF" transform="translate(0,0)"/>
<path d="" fill="#FFFFFF" transform="translate(0,0)"/>
<path d="" fill="#FFFFFF" transform="translate(0,0)"/>
<path d="" fill="#FFFFFF" transform="translate(0,0)"/>
<path d="" fill="#FFFFFF" transform="translate(0,0)"/>
<path d="" fill="#FFFFFF" transform="translate(0,0)"/>
<path d="" fill="#FFFFFF" transform="translate(0,0)"/>
<path d="" fill="#FFFFFF" transform="translate(0,0)"/>
<path d="" fill="#FFFFFF" transform="translate(0,0)"/>
</svg>
